<svg height="800" width="800" xmlns="http://www.w3.org/2000/svg" viewBox="0 0 512 512" xml:space="preserve"><path style="fill:#7dfaa0" d="M204.693 230.347H33.67c-14.168 0-25.653-11.485-25.653-25.653V33.67c0-14.168 11.485-25.653 25.653-25.653h171.023c14.168 0 25.653 11.485 25.653 25.653v171.023c.001 14.168-11.485 25.654-25.653 25.654z"/><path style="fill:#ff4b4b" d="M478.33 230.347H307.307c-14.168 0-25.653-11.485-25.653-25.653V33.67c0-14.168 11.485-25.653 25.653-25.653H478.33c14.168 0 25.653 11.485 25.653 25.653v171.023c0 14.168-11.485 25.654-25.653 25.654z"/><path style="fill:#ffdc64" d="M204.693 503.983H33.67c-14.168 0-25.653-11.485-25.653-25.653V307.307c0-14.168 11.485-25.653 25.653-25.653h171.023c14.168 0 25.653 11.485 25.653 25.653V478.33c.001 14.168-11.485 25.653-25.653 25.653z"/><path style="fill:#00c3ff" d="M478.33 503.983H307.307c-14.168 0-25.653-11.485-25.653-25.653V307.307c0-14.168 11.485-25.653 25.653-25.653H478.33c14.168 0 25.653 11.485 25.653 25.653V478.33c0 14.168-11.485 25.653-25.653 25.653z"/><path d="M204.693 0H33.67C15.105 0 0 15.105 0 33.67v171.023c0 18.566 15.105 33.67 33.67 33.67h171.023c18.566 0 33.67-15.105 33.67-33.67V33.67c0-18.565-15.104-33.67-33.67-33.67zm17.637 204.693c0 9.725-7.912 17.637-17.637 17.637H33.67c-9.725 0-17.637-7.912-17.637-17.637V33.67c0-9.725 7.912-17.637 17.637-17.637h171.023c9.725 0 17.637 7.912 17.637 17.637v171.023zM478.33 0H307.307c-18.566 0-33.67 15.105-33.67 33.67v171.023c0 18.566 15.105 33.67 33.67 33.67H478.33c18.566 0 33.67-15.105 33.67-33.67V33.67C512 15.105 496.895 0 478.33 0zm17.637 204.693c0 9.725-7.912 17.637-17.637 17.637H307.307c-9.725 0-17.637-7.912-17.637-17.637V33.67c0-9.725 7.912-17.637 17.637-17.637H478.33c9.725 0 17.637 7.912 17.637 17.637v171.023zM204.693 273.637H33.67c-18.566 0-33.67 15.105-33.67 33.67V478.33C0 496.895 15.105 512 33.67 512h171.023c18.566 0 33.67-15.105 33.67-33.67V307.307c0-18.566-15.104-33.67-33.67-33.67zM222.33 478.33c0 9.725-7.912 17.637-17.637 17.637H33.67c-9.725 0-17.637-7.912-17.637-17.637V307.307c0-9.725 7.912-17.637 17.637-17.637h171.023c9.725 0 17.637 7.912 17.637 17.637V478.33zM478.33 273.637H307.307c-18.566 0-33.67 15.105-33.67 33.67V478.33c0 18.566 15.105 33.67 33.67 33.67H478.33c18.566 0 33.67-15.105 33.67-33.67V307.307c0-18.566-15.105-33.67-33.67-33.67zm17.637 204.693c0 9.725-7.912 17.637-17.637 17.637H307.307c-9.725 0-17.637-7.912-17.637-17.637V307.307c0-9.725 7.912-17.637 17.637-17.637H478.33c9.725 0 17.637 7.912 17.637 17.637V478.33z"/><path d="M170.489 111.165h-43.29v-43.29a8.017 8.017 0 0 0-16.034 0v43.29h-43.29a8.017 8.017 0 0 0 0 16.034h43.29v43.29a8.017 8.017 0 0 0 16.034 0v-43.29h43.29a8.017 8.017 0 0 0 0-16.034zM444.125 111.165H341.511a8.017 8.017 0 0 0 0 16.034h102.614a8.017 8.017 0 0 0 0-16.034zM444.125 384.802H341.511a8.017 8.017 0 0 0 0 16.034h102.614a8.017 8.017 0 0 0 0-16.034zM167.606 344.394a8.016 8.016 0 0 0-11.337 0l-37.087 37.087-37.087-37.087a8.016 8.016 0 0 0-11.337 0 8.016 8.016 0 0 0 0 11.337l37.087 37.087-37.087 37.087a8.016 8.016 0 0 0 0 11.337 7.988 7.988 0 0 0 5.668 2.348 7.988 7.988 0 0 0 5.668-2.348l37.087-37.087 37.087 37.087a7.992 7.992 0 0 0 5.668 2.348 7.988 7.988 0 0 0 5.668-2.348 8.016 8.016 0 0 0 0-11.337l-37.087-37.087 37.087-37.087a8.016 8.016 0 0 0 .002-11.337zM392.861 349.614c4.427 0 8.059-3.632 8.059-8.059s-3.632-8.059-8.059-8.059-8.059 3.632-8.059 8.059 3.632 8.059 8.059 8.059zM392.861 436.023c-4.427 0-8.059 3.632-8.059 8.059s3.632 8.059 8.059 8.059 8.059-3.632 8.059-8.059c.001-4.427-3.631-8.059-8.059-8.059z"/></svg>